<?xml version="1.0" encoding="UTF-8" standalone="no"?>
<svg
   xmlns:dc="http://purl.org/dc/elements/1.1/"
   xmlns:cc="http://creativecommons.org/ns#"
   xmlns:rdf="http://www.w3.org/1999/02/22-rdf-syntax-ns#"
   xmlns:svg="http://www.w3.org/2000/svg"
   xmlns="http://www.w3.org/2000/svg"
   xmlns:sodipodi="http://sodipodi.sourceforge.net/DTD/sodipodi-0.dtd"
   xmlns:inkscape="http://www.inkscape.org/namespaces/inkscape"
   version="1.0"
   width="266.66666"
   height="266.66666"
   viewBox="0 0 200 200"
   preserveAspectRatio="xMidYMid meet"
   id="svg861"
   sodipodi:docname="Gauge2.svg"
   inkscape:version="0.92.3 (2405546, 2018-03-11)"
   inkscape:export-filename="C:\Users\poppe\source\repos\SerialMonitor\SerialSender\Resources\Gauge3.png"
   inkscape:export-xdpi="360"
   inkscape:export-ydpi="360">
  <defs
     id="defs865" />
  <sodipodi:namedview
     pagecolor="#ffffff"
     bordercolor="#666666"
     borderopacity="1"
     objecttolerance="10"
     gridtolerance="10"
     guidetolerance="10"
     inkscape:pageopacity="0"
     inkscape:pageshadow="2"
     inkscape:window-width="2560"
     inkscape:window-height="1377"
     id="namedview863"
     showgrid="false"
     inkscape:zoom="2.503158"
     inkscape:cx="135.45972"
     inkscape:cy="139.18203"
     inkscape:window-x="2552"
     inkscape:window-y="-8"
     inkscape:window-maximized="1"
     inkscape:current-layer="layer1"
     units="px" />
  <metadata
     id="metadata851">
Created by potrace 1.16, written by Peter Selinger 2001-2019
<rdf:RDF>
  <cc:Work
     rdf:about="">
    <dc:format>image/svg+xml</dc:format>
    <dc:type
       rdf:resource="http://purl.org/dc/dcmitype/StillImage" />
    <dc:title></dc:title>
  </cc:Work>
</rdf:RDF>
</metadata>
  <g
     inkscape:groupmode="layer"
     id="layer1"
     inkscape:label="Layer 1"
     style="display:inline"
     transform="translate(0,7.6293947e-6)">
    <g
       transform="matrix(0.10784081,0,0,-0.10784081,-8.0269874,206.98198)"
       id="g859"
       style="fill:#ffffff;fill-opacity:1;stroke:#000000;stroke-width:52.50000381;stroke-miterlimit:4;stroke-dasharray:none;stroke-opacity:1"
       inkscape:export-xdpi="360"
       inkscape:export-ydpi="360">
      <path
         d="M 815,1546 C 624,1502 477,1418 344,1277 198,1124 110,912 110,713 c 0,-73 2,-83 22,-97 29,-21 61,-20 86,1 15,14 22,40 30,119 13,114 51,232 103,321 44,74 188,218 262,262 209,123 466,140 678,45 l 56,-26 74,37 c 69,35 72,38 54,52 -35,27 -159,81 -236,104 -95,27 -332,36 -424,15 z"
         id="path853"
         inkscape:connector-curvature="0"
         style="fill:#ffffff;fill-opacity:1;stroke:#000000;stroke-width:52.50000381;stroke-miterlimit:4;stroke-dasharray:none;stroke-opacity:1" />
      <path
         d="M 1226,1181 C 856,998 823,979 778,931 643,784 691,549 876,459 c 65,-31 177,-33 245,-2 100,45 107,56 326,501 112,227 203,415 203,418 0,12 -59,-15 -424,-195 z M 1084,840 c 70,-61 70,-148 1,-209 -30,-26 -44,-31 -87,-31 -45,0 -54,4 -88,38 -50,50 -60,96 -31,154 26,54 63,77 123,78 39,0 54,-6 82,-30 z"
         id="path855"
         inkscape:connector-curvature="0"
         style="fill:#ffffff;fill-opacity:1;stroke:#000000;stroke-width:52.50000381;stroke-miterlimit:4;stroke-dasharray:none;stroke-opacity:1" />
      <path
         d="m 1651,1171 -34,-69 22,-31 c 59,-82 105,-226 117,-364 6,-63 11,-81 28,-92 27,-19 56,-19 84,1 51,35 15,289 -63,444 -40,80 -104,180 -114,180 -4,0 -22,-31 -40,-69 z"
         id="path857"
         inkscape:connector-curvature="0"
         style="fill:#ffffff;fill-opacity:1;stroke:#000000;stroke-width:52.50000381;stroke-miterlimit:4;stroke-dasharray:none;stroke-opacity:1" />
    </g>
  </g>
</svg>
